# xmcd
#
# Track frame offsets:
#	150
#	19467
#	35643
#	56145
#	75915
#	93874
#	114896
#	137924
#	158250
#	175953
#	199239
#	218380
#	235773
#	253121
#	268865
#
# Disc length: 3820 seconds
#
# Revision: 1
# Processed by: cddbd v1.4PL0 Copyright (c) Steve Scherf et al.
# Submitted via: audiograbber 1.80
#
DISCID=c30eea0f
DTITLE=Factor X - Entretien avec un empire
DYEAR=1900
DGENRE=
TTITLE0=Flow
TTITLE1=Entre 2 Mondes
TTITLE2=Entends Mes Regrets
TTITLE3=Pire Pour Moi
TTITLE4=Si Je Tenais Le Monde
TTITLE5=13.7.00
TTITLE6=Une Bastos, Une Larme, Un Coeur
TTITLE7=Hip Hop Thérapie
TTITLE8=Thug's Story feat. Jerry Dafunkyla
TTITLE9=FlashBack
TTITLE10=Fleur Du Béton feat. Alex
TTITLE11=Secret Malsain feat. Alex
TTITLE12=Blessure pénale
TTITLE13=Boom Boom
TTITLE14=Embrasse Le Ciel feat. Jerry Dafunkyla, Antilop Sa
EXTD=
EXTT0=
EXTT1=
EXTT2=
EXTT3=
EXTT4=
EXTT5=
EXTT6=
EXTT7=
EXTT8=
EXTT9=
EXTT10=
EXTT11=
EXTT12=
EXTT13=
EXTT14=
PLAYORDER=
